<?xml version="1.0" encoding="utf-8"?>
<!-- Generator: Adobe Illustrator 22.0.1, SVG Export Plug-In . SVG Version: 6.00 Build 0)  -->
<svg version="1.1" id="Layer_1" xmlns="http://www.w3.org/2000/svg" xmlns:xlink="http://www.w3.org/1999/xlink" x="0px" y="0px"
	 viewBox="0 0 2576.1 527" style="enable-background:new 0 0 2576.1 527;" xml:space="preserve">
<style type="text/css">
	.st0{display:none;}
	.st1{display:none;fill:#0E1027;}
	.st2{fill:#1E90FF;}
	.st3{fill:#FFFFFF;}
</style>
<rect x="-181" class="st0" width="3297" height="527"/>
<rect x="-164" class="st1" width="3280" height="527"/>
<g>
	<path class="st2" d="M583.2,309h-94.6c4.2-25.8,8.3-51.5,12.5-77.2c6.4-40.1,12.8-80.2,19.3-120.3H615c11.3,0,21.2,2.8,29.7,8.4
		c8.5,5.6,14.7,13.1,18.7,22.4c2.8,6.4,4.2,13.4,4.2,20.9c0,3.3-0.3,6.7-0.8,10.2L655,247.1c-2,11.5-6.5,21.9-13.5,31.2
		c-7,9.3-15.7,16.8-25.9,22.3C605.3,306.2,594.5,309,583.2,309z M561.2,160.2L545,260.4h45.9c3.6,0,6.9-1.3,9.9-3.8
		c3-2.5,4.8-5.7,5.6-9.5l11.8-73.7c0.2-0.8,0.3-1.5,0.3-2.2c0-2.8-0.9-5.2-2.7-7.1c-2.2-2.6-5.1-3.9-8.7-3.9H561.2z"/>
	<path class="st2" d="M802,309h-70.3c-11.4,0-21.3-2.8-29.8-8.3c-8.5-5.6-14.7-13-18.7-22.3c-2.8-6.5-4.2-13.5-4.2-21
		c0-3.3,0.3-6.7,0.8-10.2l11.7-73.7c2-11.5,6.5-21.9,13.5-31.2c7-9.3,15.7-16.7,25.9-22.3c10.3-5.6,21.1-8.4,32.5-8.4h94.6
		l-3.8,24.4c-1.4,6.8-4.8,12.5-10.2,17.2c-5.4,4.7-11.4,7.1-18.1,7.1h-70.5c-3.6,0-6.9,1.3-9.9,3.8c-3,2.5-4.8,5.7-5.4,9.4l-2,12.6
		h76l-3.9,24.2c-1.3,6.9-4.6,12.7-10,17.4c-5.4,4.7-11.5,7.1-18.2,7.1h-51.7l-2,12.5c-0.1,0.7-0.1,1.4-0.1,2c0,2.9,0.9,5.4,2.6,7.5
		c2.2,2.5,5.1,3.8,8.7,3.8h94.7l-3.9,24.3c-1.3,6.9-4.6,12.6-10,17.3C814.8,306.7,808.7,309,802,309z"/>
	<path class="st2" d="M957.8,309h-53.2c-11.3,0-21.2-2.8-29.7-8.3c-8.5-5.6-14.7-13-18.8-22.3c-2.8-6.5-4.2-13.6-4.2-21.2
		c0-3.3,0.3-6.6,0.8-10l11.8-73.8c3.3-17.5,11.7-32,25.2-43.7c6.6-5.6,13.9-10,21.9-13.3c8-3.3,16.2-4.9,24.8-4.9h77.4l-3.9,24.4
		c-1.3,6.8-4.6,12.5-10,17.2c-5.4,4.7-11.5,7.1-18.2,7.1h-53.1c-3.6,0-6.9,1.3-9.9,3.8c-3,2.5-4.8,5.7-5.4,9.4l-11.9,73.8
		c-0.1,0.7-0.1,1.4-0.1,2.2c0,2.9,0.9,5.3,2.6,7.3c2.2,2.5,5.1,3.8,8.7,3.8h77.4l-3.8,24.3c-1.4,6.9-4.8,12.6-10.2,17.3
		C970.5,306.7,964.4,309,957.8,309z"/>
	<path class="st2" d="M1005.2,309l28-173.2c1.3-6.9,4.6-12.6,10-17.3c5.4-4.7,11.5-7,18.2-7h24.3l-27.8,173.2
		c-1.4,6.9-4.7,12.6-10.1,17.3c-5.4,4.7-11.4,7-18.1,7H1005.2z"/>
	<path class="st2" d="M1232.6,111.5c8.7,0,16.3,2.1,22.7,6.4c6.5,4.3,11.2,10,14.3,17.1c2.2,5.1,3.3,10.5,3.3,16.4
		c0,2.4-0.2,4.9-0.5,7.5l-7.3,45.3c-2.4,13.3-9,24.5-19.5,33.7c-10.6,9.1-22.4,13.7-35.4,13.7h-60.9l-5.3,33.1
		c-1.3,6.9-4.6,12.6-10,17.3c-5.4,4.7-11.5,7-18.2,7h-24.3l27.8-173.2c1.3-6.9,4.6-12.6,10-17.3c5.4-4.7,11.5-7,18.2-7H1232.6z
		 M1163.9,160.1l-6.9,42.8h47.8c3.3,0,6.2-1.1,8.8-3.4c2.6-2.3,4.3-5.1,4.9-8.4l3.1-19c0.1-0.6,0.1-1.3,0.1-1.9
		c0-2.5-0.8-4.7-2.3-6.5c-1.9-2.4-4.5-3.5-7.7-3.5H1163.9z"/>
	<path class="st2" d="M1337,186h59.3l8.1-50.2c1.3-6.9,4.6-12.6,10-17.3c5.4-4.7,11.5-7,18.2-7h24.3l-27.8,173.2
		c-1.4,6.9-4.8,12.6-10.2,17.3c-5.4,4.7-11.4,7-18.1,7h-24.4l12.1-74.4h-59.3l-8.1,50.1c-1.3,6.9-4.6,12.6-10,17.3
		c-5.4,4.7-11.5,7-18.2,7h-24.3l27.8-173.2c1.4-6.9,4.8-12.6,10.2-17.3c5.4-4.7,11.4-7,18.1-7h24.4L1337,186z"/>
	<path class="st2" d="M1582.4,309h-70.3c-11.4,0-21.3-2.8-29.8-8.3c-8.5-5.6-14.7-13-18.7-22.3c-2.8-6.5-4.2-13.5-4.2-21
		c0-3.3,0.3-6.7,0.8-10.2l11.7-73.7c2-11.5,6.5-21.9,13.5-31.2c7-9.3,15.7-16.7,25.9-22.3c10.3-5.6,21.1-8.4,32.5-8.4h94.6
		l-3.8,24.4c-1.4,6.8-4.8,12.5-10.2,17.2c-5.4,4.7-11.4,7.1-18.1,7.1H1536c-3.6,0-6.9,1.3-9.9,3.8c-3,2.5-4.8,5.7-5.4,9.4l-2,12.6
		h76l-3.9,24.2c-1.3,6.9-4.6,12.7-10,17.4c-5.4,4.7-11.5,7.1-18.2,7.1h-51.7l-2,12.5c-0.1,0.7-0.1,1.4-0.1,2c0,2.9,0.9,5.4,2.6,7.5
		c2.2,2.5,5.1,3.8,8.7,3.8h94.7l-3.9,24.3c-1.3,6.9-4.6,12.6-10,17.3C1595.1,306.7,1589.1,309,1582.4,309z"/>
	<path class="st2" d="M1770.9,111.5c8.7,0,16.3,2.1,22.7,6.4c6.5,4.3,11.2,10,14.3,17.1c2.2,5,3.3,10.3,3.3,16
		c0,2.5-0.2,5.2-0.7,7.9l-7.2,45.3c-1.9,10.5-6.5,19.8-13.8,28c-7.3,8.1-16.1,13.8-26.5,17.1l3.7,9.1l20,50.6h-27.8
		c-12.9,0-21.6-1.8-25.9-5.5c-4.3-3.7-8.7-11.3-13.2-23l-11.4-28.9h-20.9l-5.3,33.1c-1.3,6.9-4.6,12.6-10,17.3
		c-5.4,4.7-11.5,7-18.2,7h-24.3l27.8-173.2c1.3-6.9,4.6-12.6,10-17.3c5.4-4.7,11.5-7,18.2-7H1770.9z M1756.8,191l3.1-19
		c0.1-0.6,0.1-1.2,0.1-1.8c0-2.6-0.8-4.8-2.4-6.7c-1.9-2.4-4.5-3.5-7.7-3.5h-47.8l-6.8,42.8h47.8c3.3,0,6.2-1.1,8.8-3.4
		C1754.6,197.2,1756.2,194.4,1756.8,191z"/>
</g>
<g>
	<path class="st3" d="M1867.9,306l23.9-148.9h-29.6c-6.7,0-12-2.3-15.9-6.9c-3.2-3.8-4.8-8.3-4.8-13.4c0-1.3,0.1-2.6,0.3-3.9
		l3.8-24.3H1978c6.7,0,12,2.4,15.9,7.1c3.2,3.7,4.8,8.1,4.8,13.3c0,1.3-0.1,2.6-0.3,3.9l-3.9,24.3h-53.9l-20.1,124.6
		c-1.3,6.9-4.6,12.6-10,17.3c-5.4,4.7-11.5,7-18.2,7H1867.9z"/>
	<path class="st3" d="M2115.4,306h-70.3c-11.4,0-21.3-2.8-29.8-8.3c-8.5-5.6-14.7-13-18.7-22.3c-2.8-6.5-4.2-13.5-4.2-21
		c0-3.3,0.3-6.7,0.8-10.2l11.7-73.7c2-11.5,6.5-21.9,13.5-31.2c7-9.3,15.7-16.7,25.9-22.3c10.3-5.6,21.1-8.4,32.5-8.4h94.6
		l-3.8,24.4c-1.4,6.8-4.8,12.5-10.2,17.2c-5.4,4.7-11.4,7.1-18.1,7.1h-70.5c-3.6,0-6.9,1.3-9.9,3.8c-3,2.5-4.8,5.7-5.4,9.4l-2,12.6
		h76l-3.9,24.2c-1.3,6.9-4.6,12.7-10,17.4c-5.4,4.7-11.5,7.1-18.2,7.1h-51.7l-2,12.5c-0.1,0.7-0.1,1.4-0.1,2c0,2.9,0.9,5.4,2.6,7.5
		c2.2,2.5,5.1,3.8,8.7,3.8h94.7l-3.9,24.3c-1.3,6.9-4.6,12.6-10,17.3C2128.1,303.7,2122.1,306,2115.4,306z"/>
	<path class="st3" d="M2271.2,306H2218c-11.3,0-21.2-2.8-29.7-8.3c-8.5-5.6-14.7-13-18.8-22.3c-2.8-6.5-4.2-13.6-4.2-21.2
		c0-3.3,0.3-6.6,0.8-10l11.8-73.8c3.3-17.5,11.7-32,25.2-43.7c6.6-5.6,13.9-10,21.9-13.3c8-3.3,16.2-4.9,24.8-4.9h77.4l-3.9,24.4
		c-1.3,6.8-4.6,12.5-10,17.2c-5.4,4.7-11.5,7.1-18.2,7.1H2242c-3.6,0-6.9,1.3-9.9,3.8c-3,2.5-4.8,5.7-5.4,9.4l-11.9,73.8
		c-0.1,0.7-0.1,1.4-0.1,2.2c0,2.9,0.9,5.3,2.6,7.3c2.2,2.5,5.1,3.8,8.7,3.8h77.4l-3.8,24.3c-1.4,6.9-4.8,12.6-10.2,17.3
		C2283.8,303.7,2277.8,306,2271.2,306z"/>
	<path class="st3" d="M2387,183h59.3l8.1-50.2c1.3-6.9,4.6-12.6,10-17.3c5.4-4.7,11.5-7,18.2-7h24.3l-27.8,173.2
		c-1.4,6.9-4.8,12.6-10.2,17.3c-5.4,4.7-11.4,7-18.1,7h-24.4l12.1-74.4h-59.3l-8.1,50.1c-1.3,6.9-4.6,12.6-10,17.3
		c-5.4,4.7-11.5,7-18.2,7h-24.3l27.8-173.2c1.4-6.9,4.8-12.6,10.2-17.3c5.4-4.7,11.4-7,18.1-7h24.4L2387,183z"/>
</g>
<g>
	<path class="st2" d="M304.6,91l-64,112.5c4.5,2.6,8.8,5.8,12.7,9.7c5.9,5.9,10.4,12.8,13.4,20l117.1-61.1
		C354.9,111.1,304.6,91,304.6,91z"/>
	<g>
		<g>
			<path class="st3" d="M66.8,320.2C47,270.1,53.4,213.4,88.3,169.7l-7.4-7.4c-38.9,48-45.4,111.1-22.1,165.9L66.8,320.2z"/>
		</g>
		<g>
			<path class="st3" d="M343.9,205.8c22.9,53.3,12.7,117.6-30.8,161.1c-0.2,0.2-0.4,0.3-0.6,0.5l18.3,18.3c0.2-0.2,0.4-0.3,0.6-0.5
				c51.7-51.7,63.5-128.4,35.5-191.6L343.9,205.8z"/>
			<path class="st3" d="M106,160.9c0.2-0.2,0.3-0.4,0.5-0.6c44.1-44.1,109.8-54,163.6-29.7l12.2-23c-63.6-29.5-141.7-18-194.1,34.4
				c-0.2,0.2-0.3,0.4-0.5,0.6L106,160.9z"/>
		</g>
		<path class="st3" d="M256.5,402.3c-34.1,11.6-71.7,10.2-105.1-4.1l-12.2,23c40.9,18.2,87.4,19.5,129.2,4.2L256.5,402.3z"/>
	</g>
	<path class="st3" d="M242.8,222.6c-5.1-5.1-10.7-9.3-16.6-12.7l32.1-58.8c-9.9-4.3-20.3-7.1-30.9-8.6l0,27.6
		c-11.2-2.1-22.6-2.3-33.9-0.4l0-27.3c-20.9,2.8-41.2,11-58.6,24.6l19,19c-4.3,3.1-8.5,6.5-12.4,10.4c-4.3,4.3-8,8.9-11.4,13.8
		l-19-19c-12.9,17.5-20.5,37.7-22.9,58.4h26.4c-1.7,11.2-1.5,22.7,0.8,33.8c-0.2,0-0.4,0.1-0.6,0.1l-25.8,0
		c3.2,20,11.4,39.3,24.5,55.9l17.2-17.2c0.4-0.4,0.9-0.8,1.4-1.2c2.8,3.8,5.8,7.5,9.3,10.9c4.6,4.7,9.6,8.7,14.9,12.2
		c-0.5,0.7-1,1.4-1.6,2l-16.8,16.8c16.8,12.2,35.9,19.6,55.5,22.2l0-23c0-1.2,0.2-2.3,0.5-3.5c10.8,1.7,21.9,1.7,32.7-0.3
		c0.4,1.2,0.6,2.5,0.6,3.8l0,22.9c19.5-2.8,38.5-10.3,55.2-22.5L266.2,346c-1-1-1.7-2.1-2.3-3.2c4.6-3.2,9.1-6.8,13.2-11
		c3.7-3.7,7.1-7.7,10.1-11.9c1,0.6,2,1.3,2.9,2.1l16.7,16.7c12.9-16.6,20.9-35.7,24.1-55.4h-24.8c-1,0-1.9-0.1-2.9-0.3
		c2.2-11,2.5-22.3,0.8-33.3c0.7-0.1,1.4-0.2,2.1-0.2l25.6,0c-1.3-11.2-4.2-22.2-8.5-32.7L260.4,249
		C256.5,239.4,250.6,230.4,242.8,222.6z M236.7,291.8c-14.2,14.2-37.2,14.2-51.4,0c-14.2-14.2-14.2-37.2,0-51.4
		c14.2-14.2,37.2-14.2,51.4,0C250.8,254.6,250.8,277.6,236.7,291.8z"/>
</g>
<g>
	<path class="st3" d="M539.7,429.7v6.3h-48.5v-68.6h47v6.3h-39.8v24.4h35.5v6.2h-35.5v25.5H539.7z"/>
	<path class="st3" d="M563.2,378.4v6.1h15.9v5.9h-15.7V436h-7v-45.7h-9.2v-5.9h9.2v-6.4c0-9.2,5.5-15.3,15.6-15.3
		c3.8,0,7.7,1.1,10.3,3.2l-2.4,5.2c-2-1.7-4.7-2.5-7.6-2.5C566.3,368.7,563.2,372,563.2,378.4z"/>
	<path class="st3" d="M596.4,378.4v6.1h15.9v5.9h-15.7V436h-7v-45.7h-9.2v-5.9h9.2v-6.4c0-9.2,5.5-15.3,15.6-15.3
		c3.8,0,7.7,1.1,10.3,3.2l-2.4,5.2c-2-1.7-4.7-2.5-7.6-2.5C599.6,368.7,596.4,372,596.4,378.4z"/>
	<path class="st3" d="M665.7,412.4h-43.1c0.8,10.8,9,17.9,20.3,17.9c6.3,0,11.9-2.3,15.8-6.8l3.9,4.5c-4.6,5.5-11.8,8.4-19.9,8.4
		c-16.1,0-27-11-27-26.3c0-15.3,10.7-26.2,25.2-26.2c14.5,0,25,10.7,25,26.2C665.8,410.8,665.7,411.6,665.7,412.4z M622.6,407.2
		h36.6c-0.9-10.1-8.2-17.2-18.3-17.2C630.8,390,623.5,397.1,622.6,407.2z"/>
	<path class="st3" d="M674.8,410.2c0-15.4,11.2-26.2,26.6-26.2c8.7,0,16.1,3.4,20.2,10.2l-5.2,3.5c-3.5-5.2-9-7.6-15-7.6
		c-11.3,0-19.5,8-19.5,20.1c0,12.2,8.2,20.1,19.5,20.1c6,0,11.5-2.4,15-7.5l5.2,3.5c-4.1,6.7-11.5,10.2-20.2,10.2
		C686,436.5,674.8,425.6,674.8,410.2z"/>
	<path class="st3" d="M762.9,432.9c-2.7,2.5-6.9,3.6-10.9,3.6c-9.7,0-15.1-5.5-15.1-15v-31.2h-9.2v-5.9h9.2v-11.3h7v11.3h15.7v5.9
		h-15.7v30.8c0,6.1,3.1,9.4,8.9,9.4c2.8,0,5.7-0.9,7.6-2.6L762.9,432.9z"/>
	<path class="st3" d="M774,368.2c0-2.6,2.3-4.9,5.1-4.9s5.1,2.2,5.1,4.8c0,2.8-2.2,5.1-5.1,5.1C776.2,373.2,774,370.9,774,368.2z
		 M775.6,384.4h7V436h-7V384.4z"/>
	<path class="st3" d="M845.2,384.4L822.3,436h-7.2l-22.8-51.6h7.3l19.3,43.9l19.5-43.9H845.2z"/>
	<path class="st3" d="M898.5,412.4h-43.1c0.8,10.8,9,17.9,20.3,17.9c6.3,0,11.9-2.3,15.8-6.8l3.9,4.5c-4.6,5.5-11.8,8.4-19.9,8.4
		c-16.1,0-27-11-27-26.3c0-15.3,10.7-26.2,25.2-26.2c14.5,0,25,10.7,25,26.2C898.6,410.8,898.5,411.6,898.5,412.4z M855.3,407.2
		h36.6c-0.9-10.1-8.2-17.2-18.3-17.2C863.6,390,856.2,397.1,855.3,407.2z"/>
	<path class="st3" d="M965.6,432.9c-2.7,2.5-6.9,3.6-10.9,3.6c-9.7,0-15.1-5.5-15.1-15v-31.2h-9.2v-5.9h9.2v-11.3h7v11.3h15.7v5.9
		h-15.7v30.8c0,6.1,3.1,9.4,8.9,9.4c2.8,0,5.7-0.9,7.6-2.6L965.6,432.9z"/>
	<path class="st3" d="M1021.2,412.4h-43.1c0.8,10.8,9,17.9,20.3,17.9c6.3,0,11.9-2.3,15.8-6.8l3.9,4.5c-4.6,5.5-11.8,8.4-19.9,8.4
		c-16.1,0-27-11-27-26.3c0-15.3,10.7-26.2,25.2-26.2c14.5,0,25,10.7,25,26.2C1021.3,410.8,1021.2,411.6,1021.2,412.4z M978.1,407.2
		h36.6c-0.9-10.1-8.2-17.2-18.3-17.2C986.4,390,979,397.1,978.1,407.2z"/>
	<path class="st3" d="M1030.4,410.2c0-15.4,11.2-26.2,26.6-26.2c8.7,0,16.1,3.4,20.2,10.2l-5.2,3.5c-3.5-5.2-9-7.6-15-7.6
		c-11.3,0-19.5,8-19.5,20.1c0,12.2,8.2,20.1,19.5,20.1c6,0,11.5-2.4,15-7.5l5.2,3.5c-4.1,6.7-11.5,10.2-20.2,10.2
		C1041.5,436.5,1030.4,425.6,1030.4,410.2z"/>
	<path class="st3" d="M1137.4,406.1V436h-7v-29.2c0-10.9-5.7-16.5-15.5-16.5c-11.1,0-18,6.9-18,18.6v27h-7v-72.7h7v30.2
		c3.8-6,10.6-9.4,19.3-9.4C1128.8,384.1,1137.4,391.3,1137.4,406.1z"/>
	<path class="st3" d="M1203.7,406.1V436h-7v-29.2c0-10.9-5.7-16.5-15.5-16.5c-11.1,0-18,6.9-18,18.6v27h-7v-51.6h6.7v9.5
		c3.7-6.3,10.7-9.9,19.6-9.9C1195.1,384.1,1203.7,391.3,1203.7,406.1z"/>
	<path class="st3" d="M1217.6,410.2c0-15.3,11.2-26.2,26.3-26.2s26.2,10.9,26.2,26.2c0,15.3-11.1,26.3-26.2,26.3
		S1217.6,425.5,1217.6,410.2z M1263,410.2c0-12.1-8.1-20.1-19.1-20.1s-19.2,8-19.2,20.1c0,12.1,8.2,20.1,19.2,20.1
		S1263,422.3,1263,410.2z"/>
	<path class="st3" d="M1284.3,363.3h7V436h-7V363.3z"/>
	<path class="st3" d="M1305.4,410.2c0-15.3,11.2-26.2,26.3-26.2c15.1,0,26.2,10.9,26.2,26.2c0,15.3-11.1,26.3-26.2,26.3
		C1316.6,436.5,1305.4,425.5,1305.4,410.2z M1350.8,410.2c0-12.1-8.1-20.1-19.1-20.1s-19.2,8-19.2,20.1c0,12.1,8.2,20.1,19.2,20.1
		S1350.8,422.3,1350.8,410.2z"/>
	<path class="st3" d="M1419.8,384.4v45.3c0,17.7-8.7,25.8-25.8,25.8c-9.4,0-18.6-2.8-24-7.9l3.5-5.3c4.9,4.4,12.3,7.1,20.3,7.1
		c13,0,19-6,19-18.7V424c-4.3,6.6-11.7,10-20.1,10c-14.7,0-25.9-10.3-25.9-25.1s11.2-24.9,25.9-24.9c8.6,0,16.1,3.5,20.4,10.3v-9.9
		H1419.8z M1413,409c0-11.2-8.2-18.8-19.6-18.8s-19.5,7.6-19.5,18.8s8.1,18.9,19.5,18.9S1413,420.1,1413,409z"/>
	<path class="st3" d="M1482.6,384.4l-25.8,57.7c-4.3,10.1-9.8,13.3-17.2,13.3c-4.8,0-9.4-1.6-12.5-4.7l3.2-5.2
		c2.5,2.5,5.7,3.9,9.4,3.9c4.6,0,7.7-2.2,10.7-8.6l2.3-5l-23-51.5h7.3l19.4,43.8l19.4-43.8H1482.6z"/>
	<path class="st3" d="M1526,378.4v6.1h15.9v5.9h-15.7V436h-7v-45.7h-9.2v-5.9h9.2v-6.4c0-9.2,5.5-15.3,15.6-15.3
		c3.8,0,7.7,1.1,10.3,3.2l-2.4,5.2c-2-1.7-4.7-2.5-7.6-2.5C1529.2,368.7,1526,372,1526,378.4z"/>
	<path class="st3" d="M1545.2,410.2c0-15.3,11.2-26.2,26.3-26.2s26.2,10.9,26.2,26.2c0,15.3-11.1,26.3-26.2,26.3
		S1545.2,425.5,1545.2,410.2z M1590.6,410.2c0-12.1-8.1-20.1-19.1-20.1s-19.2,8-19.2,20.1c0,12.1,8.2,20.1,19.2,20.1
		S1590.6,422.3,1590.6,410.2z"/>
	<path class="st3" d="M1637.9,384.1v6.8c-0.6,0-1.2-0.1-1.7-0.1c-10.8,0-17.3,6.9-17.3,19V436h-7v-51.6h6.7v10.1
		C1621.8,387.7,1628.3,384.1,1637.9,384.1z"/>
	<path class="st3" d="M1729.1,410.2c0,15.6-11,26.3-25.7,26.3c-8.5,0-15.7-3.7-19.9-10.7V436h-6.7v-72.7h7v31
		c4.3-6.7,11.4-10.2,19.6-10.2C1718.1,384.1,1729.1,394.6,1729.1,410.2z M1722.1,410.2c0-12.1-8.3-20.1-19.2-20.1
		c-11,0-19.2,8-19.2,20.1c0,12.1,8.2,20.1,19.2,20.1C1713.8,430.3,1722.1,422.3,1722.1,410.2z"/>
	<path class="st3" d="M1789.8,384.4V436h-6.7v-9.4c-3.6,6.3-10.3,9.9-18.5,9.9c-13.1,0-21.8-7.4-21.8-22.1v-29.9h7v29.2
		c0,11,5.7,16.6,15.5,16.6c10.8,0,17.5-7,17.5-18.7v-27H1789.8z"/>
	<path class="st3" d="M1802.1,430.1l3.1-5.5c4.1,3.2,11.1,5.8,18.3,5.8c9.8,0,13.8-3.3,13.8-8.4c0-13.4-33.4-2.8-33.4-23.2
		c0-8.4,7.3-14.7,20.4-14.7c6.7,0,13.9,1.9,18.2,4.8l-3,5.6c-4.5-3.1-9.9-4.4-15.2-4.4c-9.3,0-13.4,3.6-13.4,8.5
		c0,13.9,33.4,3.4,33.4,23.2c0,8.9-7.8,14.7-21.3,14.7C1814.5,436.5,1806.3,433.7,1802.1,430.1z"/>
	<path class="st3" d="M1855.6,368.2c0-2.6,2.3-4.9,5.1-4.9c2.8,0,5.1,2.2,5.1,4.8c0,2.8-2.2,5.1-5.1,5.1
		C1857.9,373.2,1855.6,370.9,1855.6,368.2z M1857.2,384.4h7V436h-7V384.4z"/>
	<path class="st3" d="M1931,406.1V436h-7v-29.2c0-10.9-5.7-16.5-15.5-16.5c-11.1,0-18,6.9-18,18.6v27h-7v-51.6h6.7v9.5
		c3.7-6.3,10.7-9.9,19.6-9.9C1922.3,384.1,1931,391.3,1931,406.1z"/>
	<path class="st3" d="M1995,412.4h-43.1c0.8,10.8,9,17.9,20.3,17.9c6.3,0,11.9-2.3,15.8-6.8l3.9,4.5c-4.6,5.5-11.8,8.4-19.9,8.4
		c-16.1,0-27-11-27-26.3c0-15.3,10.7-26.2,25.2-26.2s25,10.7,25,26.2C1995.1,410.8,1995,411.6,1995,412.4z M1951.8,407.2h36.6
		c-0.9-10.1-8.2-17.2-18.3-17.2C1960.1,390,1952.7,397.1,1951.8,407.2z"/>
	<path class="st3" d="M2002.1,430.1l3.1-5.5c4.1,3.2,11.1,5.8,18.3,5.8c9.8,0,13.8-3.3,13.8-8.4c0-13.4-33.4-2.8-33.4-23.2
		c0-8.4,7.3-14.7,20.4-14.7c6.7,0,13.9,1.9,18.2,4.8l-3,5.6c-4.5-3.1-9.9-4.4-15.2-4.4c-9.3,0-13.4,3.6-13.4,8.5
		c0,13.9,33.4,3.4,33.4,23.2c0,8.9-7.8,14.7-21.3,14.7C2014.6,436.5,2006.3,433.7,2002.1,430.1z"/>
	<path class="st3" d="M2050,430.1l3.1-5.5c4.1,3.2,11.1,5.8,18.3,5.8c9.8,0,13.8-3.3,13.8-8.4c0-13.4-33.4-2.8-33.4-23.2
		c0-8.4,7.3-14.7,20.4-14.7c6.7,0,13.9,1.9,18.2,4.8l-3,5.6c-4.5-3.1-9.9-4.4-15.2-4.4c-9.3,0-13.4,3.6-13.4,8.5
		c0,13.9,33.4,3.4,33.4,23.2c0,8.9-7.8,14.7-21.3,14.7C2062.5,436.5,2054.3,433.7,2050,430.1z"/>
	<path class="st3" d="M2123.6,430.1l3.1-5.5c4.1,3.2,11.1,5.8,18.3,5.8c9.8,0,13.8-3.3,13.8-8.4c0-13.4-33.4-2.8-33.4-23.2
		c0-8.4,7.3-14.7,20.4-14.7c6.7,0,13.9,1.9,18.2,4.8l-3,5.6c-4.5-3.1-9.9-4.4-15.2-4.4c-9.3,0-13.4,3.6-13.4,8.5
		c0,13.9,33.4,3.4,33.4,23.2c0,8.9-7.8,14.7-21.3,14.7C2136.1,436.5,2127.8,433.7,2123.6,430.1z"/>
	<path class="st3" d="M2225.2,384.4V436h-6.7v-9.4c-3.6,6.3-10.3,9.9-18.5,9.9c-13.1,0-21.8-7.4-21.8-22.1v-29.9h7v29.2
		c0,11,5.7,16.6,15.5,16.6c10.8,0,17.5-7,17.5-18.7v-27H2225.2z"/>
	<path class="st3" d="M2239.5,410.2c0-15.4,11.2-26.2,26.6-26.2c8.7,0,16.1,3.4,20.2,10.2l-5.2,3.5c-3.5-5.2-9-7.6-15-7.6
		c-11.3,0-19.5,8-19.5,20.1c0,12.2,8.2,20.1,19.5,20.1c6,0,11.5-2.4,15-7.5l5.2,3.5c-4.1,6.7-11.5,10.2-20.2,10.2
		C2250.6,436.5,2239.5,425.6,2239.5,410.2z"/>
	<path class="st3" d="M2293.8,410.2c0-15.4,11.2-26.2,26.6-26.2c8.7,0,16.1,3.4,20.2,10.2l-5.2,3.5c-3.5-5.2-9-7.6-15-7.6
		c-11.3,0-19.5,8-19.5,20.1c0,12.2,8.2,20.1,19.5,20.1c6,0,11.5-2.4,15-7.5l5.2,3.5c-4.1,6.7-11.5,10.2-20.2,10.2
		C2304.9,436.5,2293.8,425.6,2293.8,410.2z"/>
	<path class="st3" d="M2398.1,412.4H2355c0.8,10.8,9,17.9,20.3,17.9c6.3,0,11.9-2.3,15.8-6.8l3.9,4.5c-4.6,5.5-11.8,8.4-19.9,8.4
		c-16.1,0-27-11-27-26.3c0-15.3,10.7-26.2,25.2-26.2s25,10.7,25,26.2C2398.2,410.8,2398.1,411.6,2398.1,412.4z M2355,407.2h36.6
		c-0.9-10.1-8.2-17.2-18.3-17.2C2363.2,390,2355.9,397.1,2355,407.2z"/>
	<path class="st3" d="M2405.3,430.1l3.1-5.5c4.1,3.2,11.1,5.8,18.3,5.8c9.8,0,13.8-3.3,13.8-8.4c0-13.4-33.4-2.8-33.4-23.2
		c0-8.4,7.3-14.7,20.4-14.7c6.7,0,13.9,1.9,18.2,4.8l-3,5.6c-4.5-3.1-9.9-4.4-15.2-4.4c-9.3,0-13.4,3.6-13.4,8.5
		c0,13.9,33.4,3.4,33.4,23.2c0,8.9-7.8,14.7-21.3,14.7C2417.7,436.5,2409.5,433.7,2405.3,430.1z"/>
	<path class="st3" d="M2453.2,430.1l3.1-5.5c4.1,3.2,11.1,5.8,18.3,5.8c9.8,0,13.8-3.3,13.8-8.4c0-13.4-33.4-2.8-33.4-23.2
		c0-8.4,7.3-14.7,20.4-14.7c6.7,0,13.9,1.9,18.2,4.8l-3,5.6c-4.5-3.1-9.9-4.4-15.2-4.4c-9.3,0-13.4,3.6-13.4,8.5
		c0,13.9,33.4,3.4,33.4,23.2c0,8.9-7.8,14.7-21.3,14.7C2465.7,436.5,2457.4,433.7,2453.2,430.1z"/>
</g>
</svg>
